HIERARCHY
ROOT pelvis
{
	OFFSET 0.003123 -0.351407 0.012037
	CHANNELS 6 Xposition Yposition Zposition Zrotation Yrotation Xrotation 
	JOINT left_hip
	{
		OFFSET 0.058189 -0.092763 -0.026001
		CHANNELS 3 Zrotation Yrotation Xrotation
		JOINT left_knee
		{
			OFFSET 0.054695 -0.378753 -0.009396
			CHANNELS 3 Zrotation Yrotation Xrotation
			JOINT left_ankle
			{
				OFFSET -0.043453 -0.403059 -0.031876
				CHANNELS 3 Zrotation Yrotation Xrotation
				JOINT left_foot
				{
					OFFSET 0.047257 -0.057997 0.118216
					CHANNELS 3 Zrotation Yrotation Xrotation
					End Site
					{
						OFFSET 0.000000 0.000000 0.000000
					}
				}
			}
		}
	}
	JOINT right_hip
	{
		OFFSET -0.063267 -0.103908 -0.021250
		CHANNELS 3 Zrotation Yrotation Xrotation
		JOINT right_knee
		{
			OFFSET -0.044210 -0.362380 -0.016824
			CHANNELS 3 Zrotation Yrotation Xrotation
			JOINT right_ankle
			{
				OFFSET 0.015417 -0.410728 -0.020192
				CHANNELS 3 Zrotation Yrotation Xrotation
				JOINT right_foot
				{
					OFFSET -0.038812 -0.058328 0.119049
					CHANNELS 3 Zrotation Yrotation Xrotation
					End Site
					{
						OFFSET 0.000000 0.000000 0.000000
					}
				}
			}
		}
	}
	JOINT spine_1
	{
		OFFSET -0.002763 0.109891 -0.027618
		CHANNELS 3 Zrotation Yrotation Xrotation
		JOINT spine_2
		{
			OFFSET 0.009448 0.131853 -0.005940
			CHANNELS 3 Zrotation Yrotation Xrotation
			JOINT spine_3
			{
				OFFSET -0.011330 0.052235 0.028447
				CHANNELS 3 Zrotation Yrotation Xrotation
				JOINT neck
				{
					OFFSET -0.012164 0.165167 -0.031615
					CHANNELS 3 Zrotation Yrotation Xrotation
					JOINT head
					{
						OFFSET 0.024783 0.160452 0.020737
						CHANNELS 3 Zrotation Yrotation Xrotation
						End Site
						{
							OFFSET 0.000000 0.000000 0.000000
						}
					}
				}
				JOINT left_collar
				{
					OFFSET 0.046364 0.084944 -0.007220
					CHANNELS 3 Zrotation Yrotation Xrotation
					JOINT left_shoulder
					{
						OFFSET 0.119239 0.057728 -0.015461
						CHANNELS 3 Zrotation Yrotation Xrotation
						JOINT left_elbow
						{
							OFFSET 0.254123 -0.072151 -0.042459
							CHANNELS 3 Zrotation Yrotation Xrotation
							JOINT left_wrist
							{
								OFFSET 0.251987 0.023221 -0.002472
								CHANNELS 3 Zrotation Yrotation Xrotation
								JOINT left_index_1
								{
									OFFSET 0.101902 -0.008688 0.019351
									CHANNELS 3 Zrotation Yrotation Xrotation
									JOINT left_index_2
									{
										OFFSET 0.030149 -0.011154 0.001151
										CHANNELS 3 Zrotation Yrotation Xrotation
										JOINT left_index_3
										{
											OFFSET 0.006504 -0.021577 -0.002433
											CHANNELS 3 Zrotation Yrotation Xrotation
											End Site
											{
												OFFSET 0.000000 0.000000 0.000000
											}
										}
									}
								}
								JOINT left_middle_1
								{
									OFFSET 0.109398 -0.006328 -0.003981
									CHANNELS 3 Zrotation Yrotation Xrotation
									JOINT left_middle_2
									{
										OFFSET 0.026472 -0.015218 -0.004641
										CHANNELS 3 Zrotation Yrotation Xrotation
										JOINT left_middle_3
										{
											OFFSET 0.005022 -0.023347 -0.001911
											CHANNELS 3 Zrotation Yrotation Xrotation
											End Site
											{
												OFFSET 0.000000 0.000000 0.000000
											}
										}
									}
								}
								JOINT left_pinky_1
								{
									OFFSET 0.084047 -0.014539 -0.043750
									CHANNELS 3 Zrotation Yrotation Xrotation
									JOINT left_pinky_2
									{
										OFFSET 0.012124 -0.014448 -0.005375
										CHANNELS 3 Zrotation Yrotation Xrotation
										JOINT left_pinky_3
										{
											OFFSET 0.003798 -0.018853 0.000167
											CHANNELS 3 Zrotation Yrotation Xrotation
											End Site
											{
												OFFSET 0.000000 0.000000 0.000000
											}
										}
									}
								}
								JOINT left_ring_1
								{
									OFFSET 0.097444 -0.009268 -0.027345
									CHANNELS 3 Zrotation Yrotation Xrotation
									JOINT left_ring_2
									{
										OFFSET 0.023561 -0.016057 -0.001895
										CHANNELS 3 Zrotation Yrotation Xrotation
										JOINT left_ring_3
										{
											OFFSET 0.004257 -0.023548 0.000814
											CHANNELS 3 Zrotation Yrotation Xrotation
											End Site
											{
												OFFSET 0.000000 0.000000 0.000000
											}
										}
									}
								}
								JOINT left_thumb_1
								{
									OFFSET 0.040636 -0.017977 0.025611
									CHANNELS 3 Zrotation Yrotation Xrotation
									JOINT left_thumb_2
									{
										OFFSET 0.021637 -0.017639 0.011623
										CHANNELS 3 Zrotation Yrotation Xrotation
										JOINT left_thumb_3
										{
											OFFSET 0.024002 -0.008356 0.006548
											CHANNELS 3 Zrotation Yrotation Xrotation
											End Site
											{
												OFFSET 0.000000 0.000000 0.000000
											}
										}
									}
								}
							}
						}
					}
				}
				JOINT right_collar
				{
					OFFSET -0.047695 0.084339 -0.013400
					CHANNELS 3 Zrotation Yrotation Xrotation
					JOINT right_shoulder
					{
						OFFSET -0.102578 0.053524 -0.012669
						CHANNELS 3 Zrotation Yrotation Xrotation
						JOINT right_elbow
						{
							OFFSET -0.271150 -0.036492 -0.026467
							CHANNELS 3 Zrotation Yrotation Xrotation
							JOINT right_wrist
							{
								OFFSET -0.249267 -0.004533 -0.015325
								CHANNELS 3 Zrotation Yrotation Xrotation
								JOINT right_index_1
								{
									OFFSET -0.099881 -0.011783 0.019600
									CHANNELS 3 Zrotation Yrotation Xrotation
									JOINT right_index_2
									{
										OFFSET -0.030148 -0.011154 0.001151
										CHANNELS 3 Zrotation Yrotation Xrotation
										JOINT right_index_3
										{
											OFFSET -0.006505 -0.021577 -0.002432
											CHANNELS 3 Zrotation Yrotation Xrotation
											End Site
											{
												OFFSET 0.000000 0.000000 0.000000
											}
										}
									}
								}
								JOINT right_middle_1
								{
									OFFSET -0.107376 -0.009422 -0.003734
									CHANNELS 3 Zrotation Yrotation Xrotation
									JOINT right_middle_2
									{
										OFFSET -0.026472 -0.015218 -0.004641
										CHANNELS 3 Zrotation Yrotation Xrotation
										JOINT right_middle_3
										{
											OFFSET -0.005022 -0.023347 -0.001911
											CHANNELS 3 Zrotation Yrotation Xrotation
											End Site
											{
												OFFSET 0.000000 0.000000 0.000000
											}
										}
									}
								}
								JOINT right_pinky_1
								{
									OFFSET -0.082027 -0.017634 -0.043503
									CHANNELS 3 Zrotation Yrotation Xrotation
									JOINT right_pinky_2
									{
										OFFSET -0.012123 -0.014448 -0.005374
										CHANNELS 3 Zrotation Yrotation Xrotation
										JOINT right_pinky_3
										{
											OFFSET -0.003798 -0.018852 0.000167
											CHANNELS 3 Zrotation Yrotation Xrotation
											End Site
											{
												OFFSET 0.000000 0.000000 0.000000
											}
										}
									}
								}
								JOINT right_ring_1
								{
									OFFSET -0.095423 -0.012362 -0.027099
									CHANNELS 3 Zrotation Yrotation Xrotation
									JOINT right_ring_2
									{
										OFFSET -0.023561 -0.016057 -0.001895
										CHANNELS 3 Zrotation Yrotation Xrotation
										JOINT right_ring_3
										{
											OFFSET -0.004257 -0.023548 0.000816
											CHANNELS 3 Zrotation Yrotation Xrotation
											End Site
											{
												OFFSET 0.000000 0.000000 0.000000
											}
										}
									}
								}
								JOINT right_thumb_1
								{
									OFFSET -0.038613 -0.021074 0.025861
									CHANNELS 3 Zrotation Yrotation Xrotation
									JOINT right_thumb_2
									{
										OFFSET -0.021636 -0.017639 0.011623
										CHANNELS 3 Zrotation Yrotation Xrotation
										JOINT right_thumb_3
										{
											OFFSET -0.024004 -0.008353 0.006547
											CHANNELS 3 Zrotation Yrotation Xrotation
											End Site
											{
												OFFSET 0.000000 0.000000 0.000000
											}
										}
									}
								}
							}
						}
					}
				}
			}
		}
	}
}
MOTION
Frames: 4
Frame Time: 0.050000
-1.154205 1.028133 0.456608 6.438777 5.276444 -6.873447 -9.282077 1.529446 5.974147 1.706160 -0.431210 2.517870 -7.597024 5.066992 23.408131 0.000000 0.000000 0.000000 0.889190 -0.806613 5.977420 -5.959234 0.612178 2.970852 18.753199 7.499736 33.617033 0.000000 0.000000 0.000000 5.220960 -1.408669 15.685304 -6.575928 0.695664 -11.631940 7.585711 1.493757 22.984769 1.858782 -0.800695 2.788708 0.000000 0.000000 0.000000 -16.735796 -16.930969 8.643724 -56.883731 -25.311223 -5.139874 -25.946068 -15.868035 5.088199 5.177432 -2.797566 11.370029 -9.496024 10.790046 3.277878 36.352340 -4.595990 4.324290 0.000000 0.000000 0.000000 -0.622061 -4.075591 -2.369828 9.113786 -0.939680 2.298384 0.000000 0.000000 0.000000 42.090385 -21.678022 -24.100524 -10.778598 3.218522 10.529326 0.000000 0.000000 0.000000 9.883417 -9.644765 -6.444242 0.831647 0.227166 2.118793 0.000000 0.000000 0.000000 30.037103 26.761851 22.848177 -21.876982 -21.904230 2.640331 0.000000 0.000000 0.000000 13.199559 14.002697 8.908270 31.943022 36.858359 2.092610 3.196467 2.780866 -0.179418 -4.717220 2.956576 -6.474602 4.156347 -14.745308 4.507756 -7.088254 -2.274092 13.561479 0.000000 0.000000 0.000000 7.277447 -2.476335 0.097513 14.484520 -1.453314 2.331936 0.000000 0.000000 0.000000 -13.624292 22.873652 -32.962064 -7.406959 -4.947480 25.892488 0.000000 0.000000 0.000000 5.919860 12.279988 -7.962103 8.660419 -5.332863 17.931034 0.000000 0.000000 0.000000 -25.375126 -29.456537 21.661124 11.233760 18.502576 -2.127189 0.000000 0.000000 0.000000 
-1.146667 1.031357 0.454628 4.430696 7.393543 -8.093730 -7.233543 0.785317 3.068655 1.328634 -0.831998 5.981649 -6.026358 6.960401 22.528400 0.000000 0.000000 0.000000 3.526915 -1.318659 7.807819 -4.487205 0.422209 1.833467 14.831045 1.443544 36.861205 0.000000 0.000000 0.000000 5.311437 -1.617759 17.330660 -4.175537 0.180026 -9.748001 10.018490 1.890698 22.565271 -1.663251 -0.182108 3.524421 0.000000 0.000000 0.000000 -20.311936 -20.660344 11.044788 -55.469518 -28.611522 -4.525160 -23.475580 -16.635986 4.928012 2.941508 -1.414823 18.654204 -18.689655 16.043740 3.297309 15.055895 -4.757337 -8.915340 0.000000 0.000000 0.000000 -13.236263 -2.519799 -3.748289 4.229258 -0.555267 1.791991 0.000000 0.000000 0.000000 41.925570 -31.071510 -43.901667 -19.668986 2.461936 7.053118 0.000000 0.000000 0.000000 0.198961 -16.228134 -9.839809 -11.675639 1.105063 1.821000 0.000000 0.000000 0.000000 25.563921 30.783433 35.010743 -5.305920 -40.882153 -9.293328 0.000000 0.000000 0.000000 10.973484 14.934733 9.453368 28.263171 35.148752 1.182155 7.425342 7.763281 -0.109112 -6.503122 -3.846491 -8.687628 27.348914 -22.758577 2.286018 -4.347121 -1.522042 17.636154 0.000000 0.000000 0.000000 35.865221 -1.628689 -3.896463 18.005771 -11.791055 30.212767 0.000000 0.000000 0.000000 8.100326 32.272974 -42.820573 -21.038402 -7.842530 46.475862 0.000000 0.000000 0.000000 34.986273 26.635552 -9.160765 -10.415262 -15.116187 61.401860 0.000000 0.000000 0.000000 -31.441219 -44.938052 49.633819 -7.785947 39.169074 -19.653747 0.000000 0.000000 0.000000 
-1.146667 1.021687 0.454628 3.145165 2.578171 -7.982044 -5.631207 0.397757 1.561093 2.498662 -1.143947 7.162704 -4.464116 8.354264 23.091766 0.000000 0.000000 0.000000 6.083411 -1.370910 6.684636 -5.926417 0.491153 1.832179 14.600231 -0.200465 37.737271 0.000000 0.000000 0.000000 2.481590 -1.684165 20.317811 0.446541 -2.205780 -10.101159 7.176275 4.685633 22.658813 -2.868799 0.501365 0.312812 0.000000 0.000000 0.000000 -15.793270 -18.052376 9.116203 -57.996461 -30.590408 -3.856413 -22.593651 -18.383307 5.342453 5.881225 1.043915 19.077961 -25.755951 18.417280 2.589540 13.858325 -6.124841 -12.338525 0.000000 0.000000 0.000000 -21.337504 -0.950123 -4.673741 1.023198 -0.491206 -0.659561 0.000000 0.000000 0.000000 34.150828 -35.985743 -43.697883 -22.227766 0.764872 2.486737 0.000000 0.000000 0.000000 -11.711395 -17.743224 -9.169354 -13.911219 1.253495 3.816392 0.000000 0.000000 0.000000 34.378320 38.229178 52.597225 43.648284 -60.418633 -57.338571 0.000000 0.000000 0.000000 7.698586 18.564007 11.170527 32.868146 42.106899 3.850008 5.523387 3.290302 -0.250513 -3.913513 1.339543 -7.771825 4.208462 -33.368809 9.288435 38.284036 -3.991602 3.689025 0.000000 0.000000 0.000000 23.527619 -13.606563 1.113818 77.319926 10.142934 -9.124219 0.000000 0.000000 0.000000 8.033078 38.904929 -49.522568 -46.148594 6.048532 48.208949 0.000000 0.000000 0.000000 29.348416 26.490216 -11.148584 -30.959492 -29.209105 124.918145 0.000000 0.000000 0.000000 -45.378369 -45.476920 57.991107 -3.888632 47.923410 -20.826085 0.000000 0.000000 0.000000 
-1.154205 1.015884 0.453308 0.748406 2.980141 -8.675593 -2.516550 0.764588 4.354374 1.953393 -0.663869 4.087062 -6.414562 6.168646 23.428864 0.000000 0.000000 0.000000 7.989988 -2.164770 9.712266 -5.622166 0.273597 -0.486017 17.983064 6.524470 33.167950 0.000000 0.000000 0.000000 9.156786 -2.248184 18.521775 -6.191886 0.909796 -9.659539 8.819292 -1.396532 22.277587 -4.077038 0.577051 1.548095 0.000000 0.000000 0.000000 -17.329872 -17.389398 9.945828 -56.610567 -30.709191 -3.471454 -20.684231 -17.403227 4.832836 2.337338 -2.129084 14.354903 -12.136864 24.764156 7.134116 -9.607674 -5.178631 -14.747188 0.000000 0.000000 0.000000 -11.523341 8.328416 1.282464 -23.649120 0.456524 -8.766762 0.000000 0.000000 0.000000 34.498031 -28.225290 -27.075648 -39.182104 -2.978702 -8.839686 0.000000 0.000000 0.000000 -4.328047 -6.119996 -3.564680 -42.938112 -0.181687 -4.826730 0.000000 0.000000 0.000000 27.436412 30.591683 34.226512 4.801044 -48.880063 -17.692697 0.000000 0.000000 0.000000 5.339184 18.595189 10.329129 36.085904 40.379525 3.508843 8.320126 7.681344 -0.098947 -12.608179 -5.647718 -7.591352 8.662542 -12.184435 2.870310 9.255350 -5.648367 18.132992 0.000000 0.000000 0.000000 24.544737 13.385611 -6.818550 4.203594 -4.004427 17.772357 0.000000 0.000000 0.000000 -4.304599 30.487365 -42.765319 -13.328040 -5.882711 36.030531 0.000000 0.000000 0.000000 13.223740 22.157775 -12.174132 16.509487 -11.654069 31.198745 0.000000 0.000000 0.000000 -27.859964 -32.853754 24.608635 15.189128 25.315049 -2.665401 0.000000 0.000000 0.000000 
